<mxfile host="Electron" modified="2023-07-27T08:56:51.138Z" agent="Mozilla/5.0 (Windows NT 10.0; Win64; x64) AppleWebKit/537.36 (KHTML, like Gecko) draw.io/21.2.1 Chrome/112.0.5615.87 Electron/24.1.2 Safari/537.36" etag="y2ZJE_aHQJVjWktfoYP-" version="21.2.1" type="device">
  <diagram name="第 1 页" id="Ddp_4GvIFCaKqRczuAh4">
    <mxGraphModel dx="1418" dy="820" grid="1" gridSize="10" guides="1" tooltips="1" connect="1" arrows="1" fold="1" page="1" pageScale="1" pageWidth="827" pageHeight="1169" math="0" shadow="0">
      <root>
        <mxCell id="0" />
        <mxCell id="1" parent="0" />
        <mxCell id="mFS9tNRB2XuNi4HnP8-2-1" value="" style="fillColor=#DEE8FF;strokeColor=none" vertex="1" parent="1">
          <mxGeometry x="30" y="11" width="1290" height="429" as="geometry" />
        </mxCell>
        <mxCell id="mFS9tNRB2XuNi4HnP8-2-2" value="" style="fillColor=#CC4125;strokeColor=#660000" vertex="1" parent="1">
          <mxGeometry x="200" y="150" width="10" height="130" as="geometry" />
        </mxCell>
        <mxCell id="mFS9tNRB2XuNi4HnP8-2-3" value="main()" style="edgeStyle=none;verticalLabelPosition=top;verticalAlign=bottom;labelPosition=left;align=right;labelBackgroundColor=none;entryX=0;entryY=0;entryDx=0;entryDy=0;fontSize=13;" edge="1" parent="1" target="mFS9tNRB2XuNi4HnP8-2-2">
          <mxGeometry width="100" height="100" as="geometry">
            <mxPoint x="107" y="150" as="sourcePoint" />
            <mxPoint x="200" y="149.5" as="targetPoint" />
            <mxPoint x="15" as="offset" />
          </mxGeometry>
        </mxCell>
        <mxCell id="mFS9tNRB2XuNi4HnP8-2-4" value=".../postgres/src/&lt;br&gt;bin/psql/startup.c" style="shadow=1;fillColor=#A2C4C9;strokeColor=none;fontSize=14;rotation=0;html=1;direction=west;" vertex="1" parent="1">
          <mxGeometry x="47" y="70" width="120" height="50" as="geometry" />
        </mxCell>
        <mxCell id="mFS9tNRB2XuNi4HnP8-2-5" value="" style="fillColor=#CC4125;strokeColor=#660000" vertex="1" parent="1">
          <mxGeometry x="433.5" y="180" width="10" height="80" as="geometry" />
        </mxCell>
        <mxCell id="mFS9tNRB2XuNi4HnP8-2-6" value=".../src/interfaces/&#xa;libpq/fe-connect.c" style="shadow=1;fillColor=#A2C4C9;strokeColor=none;fontSize=14;" vertex="1" parent="1">
          <mxGeometry x="180" y="70" width="115" height="50" as="geometry" />
        </mxCell>
        <mxCell id="mFS9tNRB2XuNi4HnP8-2-7" value="" style="edgeStyle=none;endArrow=none;dashed=1;labelBackgroundColor=none;" edge="1" parent="1">
          <mxGeometry x="363.3350694444445" y="165" width="100" height="100" as="geometry">
            <mxPoint x="439" y="110" as="sourcePoint" />
            <mxPoint x="439" y="180" as="targetPoint" />
          </mxGeometry>
        </mxCell>
        <mxCell id="mFS9tNRB2XuNi4HnP8-2-8" value="PQconnectdbParams()" style="edgeStyle=none;verticalLabelPosition=top;verticalAlign=bottom;labelBackgroundColor=none;fontSize=13;entryX=0.5;entryY=0;entryDx=0;entryDy=0;" edge="1" parent="1" target="mFS9tNRB2XuNi4HnP8-2-5">
          <mxGeometry width="100" height="100" as="geometry">
            <mxPoint x="210" y="180" as="sourcePoint" />
            <mxPoint x="350" y="180" as="targetPoint" />
            <mxPoint x="5" as="offset" />
          </mxGeometry>
        </mxCell>
        <mxCell id="mFS9tNRB2XuNi4HnP8-2-10" value="load_cache()" style="edgeStyle=none;verticalLabelPosition=top;verticalAlign=bottom;labelBackgroundColor=none;fontSize=13;" edge="1" parent="1">
          <mxGeometry x="81" width="100" height="100" as="geometry">
            <mxPoint x="445" y="202" as="sourcePoint" />
            <mxPoint x="693" y="202" as="targetPoint" />
            <mxPoint as="offset" />
          </mxGeometry>
        </mxCell>
        <mxCell id="mFS9tNRB2XuNi4HnP8-2-15" value="" style="fillColor=#CC4125;strokeColor=#660000" vertex="1" parent="1">
          <mxGeometry x="688.5" y="209" width="10" height="111" as="geometry" />
        </mxCell>
        <mxCell id="mFS9tNRB2XuNi4HnP8-2-16" value=".../src/interfaces/libpq/&#xa;ce_metadata_cache/cache_loader.cc" style="shadow=1;fillColor=#A2C4C9;strokeColor=none;fontSize=14;" vertex="1" parent="1">
          <mxGeometry x="593" y="70" width="240" height="50" as="geometry" />
        </mxCell>
        <mxCell id="mFS9tNRB2XuNi4HnP8-2-17" value="" style="edgeStyle=none;endArrow=none;dashed=1;" edge="1" parent="1">
          <mxGeometry x="665.4878472222224" y="174.99999999999997" width="100" height="100" as="geometry">
            <mxPoint x="694" y="120" as="sourcePoint" />
            <mxPoint x="694" y="210" as="targetPoint" />
          </mxGeometry>
        </mxCell>
        <mxCell id="mFS9tNRB2XuNi4HnP8-2-24" value="" style="edgeStyle=elbowEdgeStyle;elbow=horizontal;endArrow=none;dashed=1" edge="1" parent="1">
          <mxGeometry x="230.00000000000003" y="323" width="100" height="100" as="geometry">
            <mxPoint x="205" y="123" as="sourcePoint" />
            <mxPoint x="205" y="150" as="targetPoint" />
          </mxGeometry>
        </mxCell>
        <mxCell id="mFS9tNRB2XuNi4HnP8-2-25" value="fetch_catalog_tables()" style="edgeStyle=elbowEdgeStyle;elbow=vertical;verticalLabelPosition=top;verticalAlign=bottom;labelBackgroundColor=none;fontSize=13;" edge="1" parent="1">
          <mxGeometry y="-52" width="100" height="100" as="geometry">
            <mxPoint x="700" y="223.1304012345679" as="sourcePoint" />
            <mxPoint x="970" y="223" as="targetPoint" />
            <Array as="points" />
            <mxPoint x="-5" y="-5" as="offset" />
          </mxGeometry>
        </mxCell>
        <mxCell id="mFS9tNRB2XuNi4HnP8-2-32" value="" style="edgeStyle=none;dashed=1;endArrow=none" edge="1" parent="1" source="mFS9tNRB2XuNi4HnP8-2-2">
          <mxGeometry x="50" y="300" width="100" height="100" as="geometry">
            <mxPoint x="50" y="400" as="sourcePoint" />
            <mxPoint x="205" y="340" as="targetPoint" />
          </mxGeometry>
        </mxCell>
        <mxCell id="mFS9tNRB2XuNi4HnP8-2-36" value="" style="edgeStyle=none;endArrow=none;dashed=1" edge="1" parent="1">
          <mxGeometry x="467.5711805555559" y="339.6971450617284" width="100" height="100" as="geometry">
            <mxPoint x="439" y="260" as="sourcePoint" />
            <mxPoint x="439" y="350" as="targetPoint" />
          </mxGeometry>
        </mxCell>
        <mxCell id="mFS9tNRB2XuNi4HnP8-2-43" value="load_cache" style="rounded=1;fontStyle=1;fillColor=#FFD966;strokeColor=none;fontSize=26;" vertex="1" parent="1">
          <mxGeometry x="60" y="20" width="160" height="40" as="geometry" />
        </mxCell>
        <mxCell id="mFS9tNRB2XuNi4HnP8-2-46" value="" style="endArrow=none;html=1;rounded=0;" edge="1" parent="1">
          <mxGeometry width="50" height="50" relative="1" as="geometry">
            <mxPoint x="107" y="150" as="sourcePoint" />
            <mxPoint x="107" y="123" as="targetPoint" />
          </mxGeometry>
        </mxCell>
        <mxCell id="mFS9tNRB2XuNi4HnP8-2-47" value=".../src/interfaces/libpq/ce_metadata_cache&#xa;/cached_column_manager.cc" style="shadow=1;fillColor=#A2C4C9;strokeColor=none;fontSize=14;" vertex="1" parent="1">
          <mxGeometry x="308" y="70" width="272" height="50" as="geometry" />
        </mxCell>
        <mxCell id="mFS9tNRB2XuNi4HnP8-2-50" value=".../src/interfaces/libpq/ce_data_fetcher/&#xa;lib_pq_cursor.cc" style="shadow=1;fillColor=#A2C4C9;strokeColor=none;fontSize=14;" vertex="1" parent="1">
          <mxGeometry x="849" y="70" width="240" height="50" as="geometry" />
        </mxCell>
        <mxCell id="mFS9tNRB2XuNi4HnP8-2-52" value="" style="edgeStyle=none;endArrow=none;dashed=1" edge="1" parent="1">
          <mxGeometry x="924.5711805555559" y="216" width="100" height="100" as="geometry">
            <mxPoint x="973" y="121" as="sourcePoint" />
            <mxPoint x="973" y="225" as="targetPoint" />
          </mxGeometry>
        </mxCell>
        <mxCell id="mFS9tNRB2XuNi4HnP8-2-34" value="" style="fillColor=#CC4125;strokeColor=#660000" vertex="1" parent="1">
          <mxGeometry x="969" y="225" width="10" height="95" as="geometry" />
        </mxCell>
        <mxCell id="mFS9tNRB2XuNi4HnP8-2-55" value="load_client_logic_cache()" style="edgeStyle=elbowEdgeStyle;elbow=vertical;verticalLabelPosition=top;verticalAlign=bottom;labelBackgroundColor=none;fontSize=13;" edge="1" parent="1">
          <mxGeometry x="-1" y="-14" width="100" height="100" as="geometry">
            <mxPoint x="699" y="261.1304012345679" as="sourcePoint" />
            <mxPoint x="969" y="261" as="targetPoint" />
            <Array as="points" />
            <mxPoint x="-5" y="-5" as="offset" />
          </mxGeometry>
        </mxCell>
        <mxCell id="mFS9tNRB2XuNi4HnP8-2-56" value="fill_global_settings_map()" style="edgeStyle=elbowEdgeStyle;elbow=vertical;verticalLabelPosition=top;verticalAlign=bottom;labelBackgroundColor=none;fontSize=13;" edge="1" parent="1">
          <mxGeometry x="-1.5" y="25" width="100" height="100" as="geometry">
            <mxPoint x="698.5" y="300.1304012345679" as="sourcePoint" />
            <mxPoint x="968.5" y="300" as="targetPoint" />
            <Array as="points" />
            <mxPoint x="-5" y="-5" as="offset" />
          </mxGeometry>
        </mxCell>
        <mxCell id="mFS9tNRB2XuNi4HnP8-2-57" value="load()" style="edgeStyle=elbowEdgeStyle;elbow=vertical;verticalLabelPosition=top;verticalAlign=bottom;labelBackgroundColor=none;fontSize=13;" edge="1" parent="1">
          <mxGeometry width="100" height="100" as="geometry">
            <mxPoint x="979" y="310.1304012345679" as="sourcePoint" />
            <mxPoint x="1150" y="310" as="targetPoint" />
            <Array as="points" />
            <mxPoint x="-14" as="offset" />
          </mxGeometry>
        </mxCell>
        <mxCell id="mFS9tNRB2XuNi4HnP8-2-58" value=".../src/interfaces/libpq/fe-exec.c" style="shadow=1;fillColor=#A2C4C9;strokeColor=none;fontSize=14;" vertex="1" parent="1">
          <mxGeometry x="1110" y="70" width="200" height="50" as="geometry" />
        </mxCell>
        <mxCell id="mFS9tNRB2XuNi4HnP8-2-59" value="" style="edgeStyle=none;endArrow=none;dashed=1;" edge="1" parent="1">
          <mxGeometry x="1113.5711805555559" y="297" width="100" height="100" as="geometry">
            <mxPoint x="1161" y="125" as="sourcePoint" />
            <mxPoint x="1161" y="305" as="targetPoint" />
          </mxGeometry>
        </mxCell>
        <mxCell id="mFS9tNRB2XuNi4HnP8-2-60" value="" style="fillColor=#CC4125;strokeColor=#660000" vertex="1" parent="1">
          <mxGeometry x="1156" y="303" width="10" height="77" as="geometry" />
        </mxCell>
        <mxCell id="mFS9tNRB2XuNi4HnP8-2-61" value="PQexec()" style="edgeStyle=elbowEdgeStyle;elbow=vertical;verticalLabelPosition=top;verticalAlign=bottom;labelBackgroundColor=none;fontSize=13;" edge="1" parent="1">
          <mxGeometry width="100" height="100" as="geometry">
            <mxPoint x="1166" y="320.1304012345679" as="sourcePoint" />
            <mxPoint x="1310" y="320" as="targetPoint" />
            <Array as="points" />
            <mxPoint x="-1" as="offset" />
          </mxGeometry>
        </mxCell>
        <mxCell id="mFS9tNRB2XuNi4HnP8-2-62" value="" style="edgeStyle=none;endArrow=none;dashed=1" edge="1" parent="1">
          <mxGeometry x="721.5711805555559" y="384.6971450617284" width="100" height="100" as="geometry">
            <mxPoint x="693" y="320" as="sourcePoint" />
            <mxPoint x="693" y="395" as="targetPoint" />
          </mxGeometry>
        </mxCell>
        <mxCell id="mFS9tNRB2XuNi4HnP8-2-67" value="" style="edgeStyle=none;endArrow=none;dashed=1" edge="1" parent="1">
          <mxGeometry x="1002.5711805555559" y="385.6971450617284" width="100" height="100" as="geometry">
            <mxPoint x="974" y="321" as="sourcePoint" />
            <mxPoint x="974" y="380" as="targetPoint" />
          </mxGeometry>
        </mxCell>
        <mxCell id="mFS9tNRB2XuNi4HnP8-2-68" value="" style="edgeStyle=none;endArrow=none;dashed=1" edge="1" parent="1">
          <mxGeometry x="1189.5711805555559" y="446.6971450617284" width="100" height="100" as="geometry">
            <mxPoint x="1161" y="382" as="sourcePoint" />
            <mxPoint x="1161" y="430" as="targetPoint" />
          </mxGeometry>
        </mxCell>
      </root>
    </mxGraphModel>
  </diagram>
</mxfile>
